<svg width="130" height="37" viewBox="0 0 130 37" fill="none" xmlns="http://www.w3.org/2000/svg">
<circle cx="118.5" cy="12.5" r="11.5" fill="#D90429"/>
<circle cx="11.5" cy="23.5" r="11.5" fill="#D90429"/>
<path d="M12.8499 28V8.4H22.4259C23.7513 8.4 24.9179 8.66133 25.9259 9.184C26.9526 9.688 27.7459 10.3973 28.3059 11.312C28.8846 12.2267 29.1739 13.2813 29.1739 14.476C29.1739 15.7267 28.8286 16.828 28.1379 17.78C27.4473 18.732 26.5233 19.4413 25.3659 19.908L29.7059 28H25.1699L21.3339 20.496H16.9099V28H12.8499ZM16.9099 17.164H22.0619C22.9766 17.164 23.7046 16.9213 24.2459 16.436C24.8059 15.9507 25.0859 15.316 25.0859 14.532C25.0859 13.748 24.8059 13.1133 24.2459 12.628C23.7046 12.1427 22.9766 11.9 22.0619 11.9H16.9099V17.164ZM37.8942 28.28C36.4382 28.28 35.1129 27.944 33.9182 27.272C32.7422 26.6 31.8089 25.6947 31.1182 24.556C30.4275 23.4173 30.0822 22.1387 30.0822 20.72C30.0822 19.3013 30.4089 18.0227 31.0622 16.884C31.7342 15.7453 32.6395 14.84 33.7782 14.168C34.9169 13.496 36.1862 13.16 37.5862 13.16C38.9862 13.16 40.2275 13.5053 41.3102 14.196C42.3929 14.8867 43.2422 15.82 43.8582 16.996C44.4929 18.172 44.8102 19.5067 44.8102 21V22.008H34.0022C34.1702 22.5867 34.4409 23.1093 34.8142 23.576C35.2062 24.0427 35.6822 24.4067 36.2422 24.668C36.8209 24.9293 37.4369 25.06 38.0902 25.06C38.7435 25.06 39.3409 24.9573 39.8822 24.752C40.4422 24.5467 40.9182 24.2573 41.3102 23.884L43.8302 26.18C42.9342 26.908 42.0102 27.44 41.0582 27.776C40.1249 28.112 39.0702 28.28 37.8942 28.28ZM33.9462 19.264H41.0302C40.8995 18.6853 40.6569 18.1813 40.3022 17.752C39.9662 17.304 39.5555 16.9587 39.0702 16.716C38.6035 16.4547 38.0809 16.324 37.5022 16.324C36.9049 16.324 36.3635 16.4453 35.8782 16.688C35.3929 16.9307 34.9822 17.276 34.6462 17.724C34.3289 18.1533 34.0955 18.6667 33.9462 19.264ZM54.2418 28.28C52.8045 28.28 51.5071 27.9533 50.3498 27.3C49.1925 26.628 48.2778 25.7227 47.6058 24.584C46.9338 23.4267 46.5978 22.1387 46.5978 20.72C46.5978 19.2827 46.9338 17.9947 47.6058 16.856C48.2778 15.7173 49.1925 14.812 50.3498 14.14C51.5071 13.468 52.8045 13.132 54.2418 13.132C55.3991 13.132 56.5005 13.356 57.5458 13.804C58.6098 14.252 59.5245 14.896 60.2898 15.736L57.9378 18.228C57.3965 17.6307 56.8271 17.192 56.2298 16.912C55.6511 16.6133 55.0165 16.464 54.3258 16.464C53.5791 16.464 52.9071 16.6507 52.3098 17.024C51.7311 17.3973 51.2645 17.9013 50.9098 18.536C50.5738 19.1707 50.4058 19.8987 50.4058 20.72C50.4058 21.504 50.5738 22.2227 50.9098 22.876C51.2645 23.5107 51.7498 24.0147 52.3658 24.388C52.9818 24.7427 53.6631 24.92 54.4098 24.92C55.0631 24.92 55.6698 24.7893 56.2298 24.528C56.8085 24.248 57.3591 23.8373 57.8818 23.296L60.1778 25.704C59.4311 26.5067 58.5351 27.1413 57.4898 27.608C56.4445 28.056 55.3618 28.28 54.2418 28.28ZM62.1722 28V13.412H66.0082V15.036C66.4748 14.4013 67.0348 13.916 67.6882 13.58C68.3415 13.244 69.0788 13.076 69.9002 13.076C70.6095 13.0947 71.1415 13.2067 71.4962 13.412V16.772C71.2162 16.6413 70.9082 16.548 70.5722 16.492C70.2362 16.4173 69.8908 16.38 69.5362 16.38C68.7895 16.38 68.1082 16.5667 67.4922 16.94C66.8762 17.3133 66.3815 17.8453 66.0082 18.536V28H62.1722ZM79.1758 28.28C78.0558 28.28 77.0571 28.0373 76.1798 27.552C75.3211 27.048 74.6398 26.3573 74.1358 25.48C73.6505 24.6027 73.4078 23.5947 73.4078 22.456V13.412H77.2438V21.896C77.2438 22.8293 77.5145 23.576 78.0558 24.136C78.6158 24.696 79.3625 24.976 80.2958 24.976C80.9305 24.976 81.4998 24.8547 82.0038 24.612C82.5265 24.3507 82.9558 23.9867 83.2918 23.52V13.412H87.1278V28H83.2918V26.824C82.1718 27.7947 80.7998 28.28 79.1758 28.28ZM90.1175 28V13.412H93.9535V28H90.1175ZM92.0215 11.676C91.4241 11.676 90.9108 11.4613 90.4815 11.032C90.0521 10.6027 89.8375 10.0893 89.8375 9.492C89.8375 8.876 90.0521 8.36267 90.4815 7.952C90.9108 7.52267 91.4241 7.308 92.0215 7.308C92.6375 7.308 93.1508 7.52267 93.5615 7.952C93.9908 8.36267 94.2055 8.876 94.2055 9.492C94.2055 10.0893 93.9908 10.6027 93.5615 11.032C93.1508 11.4613 92.6375 11.676 92.0215 11.676ZM103.869 28.224C102.245 28.224 101.013 27.86 100.173 27.132C99.3521 26.3853 98.9414 25.3027 98.9414 23.884V16.604H95.9454V13.412H98.9414V9.688L102.777 8.82V13.412H106.949V16.604H102.777V23.1C102.777 23.772 102.927 24.2573 103.225 24.556C103.524 24.836 104.047 24.976 104.793 24.976C105.167 24.976 105.503 24.9573 105.801 24.92C106.119 24.864 106.464 24.7707 106.837 24.64V27.804C106.445 27.9347 105.951 28.0373 105.353 28.112C104.775 28.1867 104.28 28.224 103.869 28.224ZM107.225 28L114.701 17.864L107.617 8.4H112.461L117.109 14.84L121.729 8.4H126.405L119.433 17.864L126.993 28H122.149L117.025 20.888L111.901 28H107.225Z" fill="#EDF2F4"/>
</svg>
